<svg width="45" height="45" viewBox="0 0 45 45" fill="none" xmlns="http://www.w3.org/2000/svg">
<path d="M32.8673 42.5289H3.42767C2.63919 42.5289 2 41.899 2 41.1217V18.1371C2 17.3599 2.63919 16.7298 3.42767 16.7298H10.0131C11.6847 16.7298 13.2338 15.8653 14.0938 14.4525L20.5431 3.85752C21.9348 1.57142 25.2125 1.35409 26.9022 3.43594C27.6986 4.41722 27.9553 5.72148 27.5889 6.92515L25.1562 14.9183C24.8813 15.8211 25.5673 16.7298 26.5236 16.7298H37.4099C40.5477 16.7298 42.8267 19.6709 42.001 22.6547L37.4584 39.0723C36.8938 41.1133 35.0133 42.5289 32.8673 42.5289Z" stroke="#D5FCFF" stroke-width="4" stroke-linecap="round"/>
<path d="M10.3281 42.5286V16.7295" stroke="#D5FCFF" stroke-width="4" stroke-linecap="round" stroke-linejoin="round"/>
</svg>
