<svg width="57" height="46" viewBox="0 0 57 46" fill="none" xmlns="http://www.w3.org/2000/svg">
<path d="M39.4145 8.00532C39.4145 9.5896 38.7798 11.1112 37.6461 12.2368C35.0367 14.8287 32.5062 17.5314 29.7992 20.0293C29.1789 20.5935 28.1946 20.573 27.6008 19.9832L19.8025 12.2368C17.4454 9.89536 17.4454 6.11528 19.8025 3.77384C22.1828 1.40939 26.0607 1.40939 28.4408 3.77384L28.7243 4.05539L29.0076 3.774C30.149 2.63974 31.7033 2 33.3269 2C34.9507 2 36.505 2.63969 37.6461 3.77384C38.7798 4.89954 39.4145 6.42111 39.4145 8.00532Z" stroke="#D5FCFF" stroke-width="2.41497" stroke-linejoin="round"/>
<path d="M44.7598 44.1471L54.9801 34.0731C55.2808 33.7768 55.4497 33.3748 55.4497 32.9557V19.1222C55.4497 16.9399 53.6549 15.1709 51.441 15.1709C49.2271 15.1709 47.4322 16.9399 47.4322 19.1222V30.9761" stroke="#D5FCFF" stroke-width="2.41497" stroke-linecap="round" stroke-linejoin="round"/>
<path d="M44.7599 33.6106L47.0532 31.3502C47.2961 31.1107 47.4324 30.7862 47.4324 30.448C47.4324 29.9646 47.1553 29.5228 46.7167 29.3066L45.5331 28.7234C43.4755 27.7092 40.9901 28.1067 39.3634 29.7101L36.9718 32.0675C35.9693 33.0556 35.4062 34.3956 35.4062 35.7928V44.1474" stroke="#D5FCFF" stroke-width="2.41497" stroke-linecap="round" stroke-linejoin="round"/>
<path d="M12.6899 44.1471L2.46966 34.0731C2.16893 33.7768 2 33.3748 2 32.9557V19.1222C2 16.9399 3.79476 15.1709 6.00872 15.1709C8.22269 15.1709 10.0174 16.9399 10.0174 19.1222V30.9761" stroke="#D5FCFF" stroke-width="2.41497" stroke-linecap="round" stroke-linejoin="round"/>
<path d="M12.6901 33.6106L10.3967 31.3502C10.154 31.1107 10.0176 30.7862 10.0176 30.448C10.0176 29.9646 10.2946 29.5228 10.7332 29.3066L11.9168 28.7234C13.9746 27.7092 16.4598 28.1067 18.0866 29.7101L20.4782 32.0675C21.4806 33.0556 22.0437 34.3956 22.0437 35.7928V44.1474" stroke="#D5FCFF" stroke-width="2.41497" stroke-linecap="round" stroke-linejoin="round"/>
</svg>
